PathFileType	4	(x/y/z)	TRC_MarkerData\Calibration\Standing_Cal_SL_Passive0001.trc
DataRate	CameraRate	NumFrames	NumMarkers	Units	OrigDataRate	OrigDataStartFrame	OrigNumFrames
240	240	4	50	mm	240	901	2400
Frame#	Time	R_AC			L_AC			HEAD			STERN			C7			L_IC			R_IC			L_ASIS			R_ASIS			L_GT			R_GT			L_PSIS			R_PSIS			SACRAL			L_LAT_KNEE			L_MED_KNEE			R_LAT_KNEE			R_MED_KNEE			L_LAT_ANK			L_MED_ANK			R_LAT_ANK			R_MED_ANK			L_THIGH_PROX_POST			L_THIGH_PROX_ANT			L_THIGH_DIST_ANT			L_THIGH_DIST_POST			R_THIGH_PROX_POST			R_THIGH_PROX_ANT			R_THIGH_DIST_ANT			R_THIGH_DIST_POST			L_SHANK_PROX_POST			L_SHANK_PROX_ANT			L_SHANK_DIST_ANT			L_SHANK_DIST_POST			R_SHANK_PROX_POST			R_SHANK_PROX_ANT			R_SHANK_DIST_ANT			R_SHANK_DIST_POST			L_HEEL_LAT			L_HEEL_SUP			L_HEEL_MED			R_HEEL_LAT			R_HEEL_SUP			R_HEEL_MED			L_1ST_MET			L_5TH_MET			L_TOE			R_1ST_MET			R_5TH_MET			R_TOE			
		X1	Y1	Z1	X2	Y2	Z2	X3	Y3	Z3	X4	Y4	Z4	X5	Y5	Z5	X6	Y6	Z6	X7	Y7	Z7	X8	Y8	Z8	X9	Y9	Z9	X10	Y10	Z10	X11	Y11	Z11	X12	Y12	Z12	X13	Y13	Z13	X14	Y14	Z14	X15	Y15	Z15	X16	Y16	Z16	X17	Y17	Z17	X18	Y18	Z18	X19	Y19	Z19	X20	Y20	Z20	X21	Y21	Z21	X22	Y22	Z22	X23	Y23	Z23	X24	Y24	Z24	X25	Y25	Z25	X26	Y26	Z26	X27	Y27	Z27	X28	Y28	Z28	X29	Y29	Z29	X30	Y30	Z30	X31	Y31	Z31	X32	Y32	Z32	X33	Y33	Z33	X34	Y34	Z34	X35	Y35	Z35	X36	Y36	Z36	X37	Y37	Z37	X38	Y38	Z38	X39	Y39	Z39	X40	Y40	Z40	X41	Y41	Z41	X42	Y42	Z42	X43	Y43	Z43	X44	Y44	Z44	X45	Y45	Z45	X46	Y46	Z46	X47	Y47	Z47	X48	Y48	Z48	X49	Y49	Z49	X50	Y50	Z50	

901	3.7516	559.85	1582.9	478.05	564.46	1606.4	176.78	683.76	1856.1	337.71	687.66	1530.3	333.21	539.75	1599.6	330.44	608.82	1133.2	150.21	622.01	1122.6	490.24	679.17	1055.6	177.87	683.56	1038.4	450.55	581.89	983.79	125.51	591.18	971.86	498.61	475.82	1076.9	272.55	486.97	1072.1	379.08	465.54	1053.6	327.31	585.18	573.43	125.28	609.22	568.01	259.53	534.36	559.85	497.94	559.54	541.35	373.59	491.23	129.73	105.78	494.64	126.97	184.34	468.19	96.691	484.8	506.15	115.98	391.3	550.25	831.35	130.85	614.16	822.26	117.95	610.56	746.59	123.1	547.95	757.18	136.31	548.85	808.02	503.9	615.33	800.99	512.75	601.68	727.46	508.22	534.37	734.05	497.4	586.84	519.39	127.9	630.56	529.6	138.49	627.28	479.32	140.21	577.6	465.69	128.96	435.73	408.99	488.36	500.16	415.58	516.89	504.13	341.19	513.75	440.37	332.43	487.47	426.74	54.36	105.14	418.18	77.756	142.23	428.31	44.469	171.84	409.25	40.754	452.5	405.82	66.625	416.19	426.64	39.439	387.37	655.57	48.128	186.22	633.4	48.101	82.49	706.36	57.839	160.93	655.17	49.187	428.39	605.83	32.877	530.33	690.43	54.29	485.08
902	3.7557	559.87	1582.9	478.05	564.47	1606.4	176.79	683.81	1856.1	337.7	687.68	1530.3	333.22	539.77	1599.6	330.44	608.86	1133.2	150.2	622.02	1122.6	490.23	679.2	1055.6	177.87	683.57	1038.4	450.55	581.93	983.79	125.51	591.19	971.87	498.6	475.84	1076.9	272.54	486.98	1072.1	379.06	465.57	1053.6	327.29	585.21	573.43	125.28	609.25	568.01	259.52	534.37	559.85	497.94	559.56	541.35	373.59	491.24	129.74	105.77	494.64	126.97	184.34	468.19	96.697	484.8	506.16	115.98	391.3	550.29	831.35	130.84	614.2	822.27	117.95	610.6	746.59	123.1	547.99	757.18	136.31	548.86	808.03	503.89	615.34	800.99	512.75	601.69	727.47	508.22	534.38	734.06	497.39	586.86	519.39	127.9	630.59	529.6	138.48	627.31	479.32	140.21	577.62	465.69	128.96	435.74	408.99	488.35	500.17	415.59	516.88	504.13	341.19	513.74	440.38	332.44	487.45	426.75	54.365	105.14	418.18	77.762	142.22	428.32	44.475	171.84	409.25	40.762	452.49	405.82	66.628	416.19	426.64	39.443	387.37	655.58	48.127	186.22	633.41	48.1	82.49	706.37	57.835	160.93	655.17	49.182	428.39	605.83	32.876	530.33	690.43	54.284	485.08
903	3.7599	559.89	1582.9	478.05	564.49	1606.4	176.8	683.85	1856.1	337.68	687.71	1530.3	333.22	539.79	1599.6	330.45	608.89	1133.2	150.2	622.02	1122.6	490.23	679.23	1055.6	177.87	683.58	1038.4	450.55	581.97	983.79	125.5	591.19	971.87	498.59	475.87	1076.9	272.52	487	1072.1	379.04	465.59	1053.6	327.26	585.25	573.43	125.27	609.28	568.01	259.52	534.38	559.86	497.93	559.58	541.35	373.59	491.24	129.74	105.77	494.65	126.98	184.34	468.2	96.702	484.8	506.16	115.98	391.3	550.33	831.35	130.84	614.23	822.27	117.95	610.64	746.59	123.09	548.03	757.18	136.3	548.87	808.03	503.88	615.34	801	512.75	601.7	727.48	508.22	534.39	734.06	497.38	586.89	519.39	127.9	630.62	529.6	138.48	627.33	479.32	140.21	577.65	465.69	128.96	435.75	409	488.34	500.17	415.59	516.87	504.14	341.2	513.73	440.39	332.44	487.44	426.75	54.37	105.14	418.19	77.767	142.22	428.32	44.482	171.84	409.25	40.77	452.49	405.83	66.632	416.19	426.65	39.447	387.37	655.58	48.126	186.22	633.41	48.099	82.491	706.37	57.832	160.93	655.18	49.177	428.39	605.83	32.876	530.33	690.43	54.277	485.08
904	3.7641	559.91	1582.9	478.05	564.51	1606.4	176.81	683.89	1856.1	337.67	687.74	1530.3	333.23	539.81	1599.6	330.46	608.93	1133.2	150.19	622.02	1122.6	490.22	679.27	1055.6	177.87	683.59	1038.4	450.55	582.01	983.79	125.49	591.2	971.88	498.59	475.9	1076.9	272.5	487.02	1072.1	379.03	465.62	1053.6	327.24	585.28	573.43	125.27	609.31	568.01	259.52	534.39	559.86	497.92	559.6	541.36	373.58	491.25	129.75	105.77	494.66	126.98	184.34	468.2	96.707	484.79	506.17	115.99	391.3	550.37	831.35	130.83	614.27	822.27	117.95	610.68	746.59	123.09	548.07	757.18	136.29	548.87	808.04	503.88	615.35	801.01	512.75	601.71	727.48	508.22	534.4	734.06	497.37	586.92	519.39	127.9	630.65	529.6	138.48	627.36	479.32	140.21	577.67	465.69	128.95	435.76	409	488.33	500.18	415.59	516.86	504.15	341.2	513.73	440.4	332.44	487.43	426.75	54.375	105.14	418.19	77.773	142.22	428.32	44.489	171.84	409.26	40.777	452.49	405.83	66.636	416.18	426.65	39.451	387.36	655.58	48.125	186.22	633.41	48.097	82.491	706.37	57.829	160.93	655.18	49.172	428.4	605.83	32.875	530.34	690.43	54.271	485.08
